<?xml version="1.0" standalone="no"?>
<!DOCTYPE svg PUBLIC "-//W3C//DTD SVG 20010904//EN"
 "http://www.w3.org/TR/2001/REC-SVG-20010904/DTD/svg10.dtd">
<svg version="1.0" xmlns="http://www.w3.org/2000/svg"
 width="400.000000pt" height="400.000000pt" viewBox="0 0 400.000000 400.000000"
 preserveAspectRatio="xMidYMid meet">
<metadata>
Created by potrace 1.14, written by Peter Selinger 2001-2017
</metadata>
<g transform="translate(0.000000,400.000000) scale(0.100000,-0.100000)"
fill="#000000" stroke="none">
<path d="M0 2000 l0 -2000 468 0 468 0 64 90 c59 83 90 114 90 89 0 -6 -5 -20
-11 -32 -12 -22 -12 -22 9 -3 39 34 92 121 119 196 l28 75 1 363 c1 340 2 364
20 383 10 11 26 25 36 30 15 8 15 6 5 -24 -12 -37 -14 -98 -3 -182 4 -33 7
-100 7 -150 -1 -49 4 -135 9 -190 12 -127 15 -322 5 -355 -4 -14 -16 -35 -27
-46 -10 -12 -18 -27 -16 -35 2 -7 -4 -14 -12 -14 -8 0 -14 -6 -13 -13 2 -7 -2
-11 -8 -9 -6 1 -19 -14 -30 -33 -10 -19 -19 -31 -19 -27 0 12 -25 -14 -39 -42
-7 -12 -10 -25 -7 -29 3 -3 6 1 6 8 0 7 3 11 6 8 6 -7 -17 -48 -28 -48 -4 0
-5 8 -1 18 5 14 3 13 -10 -3 -15 -19 -14 -20 6 -23 12 -2 27 4 35 15 13 16 14
16 9 1 -6 -17 14 -18 323 -18 292 0 330 2 338 16 8 15 10 15 15 0 6 -15 56
-16 526 -15 406 0 519 3 517 13 -1 7 -12 25 -24 40 -12 16 -22 33 -22 39 0 6
-3 7 -7 4 -3 -4 -14 11 -24 34 -11 22 -23 38 -29 34 -6 -4 -9 -3 -8 2 3 12
-22 56 -45 75 -11 10 -18 18 -15 18 3 0 2 17 -4 38 -9 37 -14 65 -17 90 0 7
-5 11 -10 8 -5 -4 -7 2 -4 12 2 10 -1 31 -7 47 -10 26 -20 112 -20 170 0 11
-7 106 -15 210 -8 105 -15 226 -16 270 -1 44 -7 86 -13 94 -8 11 -8 13 1 8 8
-5 9 1 4 20 -8 29 2 64 43 153 l25 55 1 -195 c1 -107 3 -206 5 -220 2 -14 -8
-41 -21 -63 -25 -39 -23 -48 6 -22 16 14 18 8 24 -91 14 -224 42 -373 90 -489
25 -58 28 -37 6 36 -11 35 -20 70 -20 77 0 7 20 -4 45 -25 35 -29 45 -43 40
-58 -4 -11 -9 -29 -12 -39 -4 -13 -2 -17 5 -12 8 4 12 0 12 -11 1 -13 5 -11
16 10 21 39 27 33 9 -9 -20 -48 -19 -54 5 -25 23 27 26 17 5 -19 -8 -14 -14
-34 -14 -45 0 -13 8 -5 24 25 27 51 32 50 10 -3 -19 -45 -19 -51 0 -43 13 4
13 2 5 -14 -13 -25 -13 -63 0 -55 6 4 18 25 27 46 21 55 28 42 8 -17 -9 -26
-13 -54 -10 -61 2 -8 1 -22 -4 -31 -4 -9 -11 -32 -15 -51 l-6 -34 45 7 c25 3
65 9 90 12 31 5 45 3 45 -5 0 -8 122 -11 450 -11 l450 0 0 2000 0 2000 -2000
0 -2000 0 0 -2000z m1445 1000 c7 -47 16 -93 20 -102 6 -14 2 -18 -17 -18 -28
0 -46 29 -44 72 1 14 -2 24 -6 22 -13 -8 -9 22 10 94 12 46 18 59 20 42 2 -14
10 -63 17 -110z m743 -20 c0 -8 5 -29 10 -47 8 -25 7 -35 -4 -44 -12 -9 -14
-5 -14 24 0 20 -11 67 -25 105 -14 38 -25 78 -25 88 1 21 56 -102 58 -126z
m-35 -52 c4 -29 3 -48 -3 -48 -6 0 -10 23 -10 52 0 62 5 60 13 -4z m-964 -71
c-1 -12 1 -29 4 -37 3 -8 13 -40 22 -70 9 -30 19 -61 22 -69 3 -8 1 -11 -5 -7
-6 3 -12 1 -14 -6 -2 -6 -14 -13 -27 -15 -18 -2 -22 0 -17 13 3 9 3 21 -1 27
-4 7 -10 2 -14 -13 -9 -29 -1 174 8 209 5 20 7 21 15 7 5 -9 8 -27 7 -39z
m506 43 c3 -6 -1 -7 -9 -4 -18 7 -21 14 -7 14 6 0 13 -4 16 -10z m516 -49 c-8
-5 -11 -16 -8 -26 4 -9 3 -14 -3 -10 -17 11 -11 45 8 45 14 0 14 -2 3 -9z
m106 -23 c-3 -7 -5 -2 -5 12 0 14 2 19 5 13 2 -7 2 -19 0 -25z m-837 18 c0 -2
3 -11 6 -20 4 -10 1 -16 -9 -16 -9 0 -17 6 -20 13 -2 6 -3 4 -2 -5 2 -10 0
-18 -5 -18 -10 0 -20 37 -12 44 6 7 42 8 42 2z m690 -28 c0 -17 -3 -28 -7 -24
-10 10 -11 56 -1 56 4 0 8 -14 8 -32z m632 -133 c-6 -27 -18 -68 -28 -90 l-18
-40 -7 50 c-7 46 4 184 18 230 5 15 11 6 26 -40 17 -51 19 -67 9 -110z m-1268
139 c3 -8 2 -12 -4 -9 -6 3 -10 10 -10 16 0 14 7 11 14 -7z m-167 -20 c-3 -4
1 -20 9 -36 17 -33 17 -35 -11 -40 -12 -2 -21 3 -23 16 -2 10 0 16 5 13 5 -3
7 7 5 24 -3 19 0 29 9 29 7 0 10 -3 6 -6z m91 -19 c12 18 37 15 49 -5 14 -21
11 -23 -59 -35 l-38 -6 0 37 c0 37 0 37 21 18 12 -10 23 -14 27 -9z m267 15
c-3 -5 0 -8 7 -5 7 3 30 -6 52 -19 38 -23 38 -23 17 -38 -11 -8 -19 -17 -17
-19 2 -2 -3 -11 -12 -19 -14 -13 -15 -12 -10 2 4 10 1 19 -8 22 -8 3 -14 11
-14 18 0 9 3 9 10 -2 5 -8 12 -11 15 -8 11 11 -5 28 -25 28 -10 0 -21 7 -24
16 -9 23 -7 34 5 34 5 0 7 -4 4 -10z m-178 -7 c-4 -3 1 -12 11 -19 16 -12 15
-13 -4 -14 -13 0 -24 8 -27 20 -3 14 0 20 11 20 8 0 12 -3 9 -7z m766 -13 c-3
-11 -9 -20 -14 -20 -14 0 -11 28 4 33 6 3 13 6 14 6 0 1 -1 -8 -4 -19z m195
-3 c6 -5 12 -15 12 -21 -1 -6 -6 -5 -13 4 -7 8 -21 16 -32 17 -11 1 -14 0 -7
-3 6 -3 9 -11 6 -16 -5 -7 -2 -8 6 -3 7 4 16 2 20 -6 6 -9 12 -10 22 -1 11 8
16 7 25 -7 9 -15 8 -18 -5 -16 -23 2 -112 27 -112 30 0 2 3 11 6 20 7 17 49
18 72 2z m-341 -34 c-3 -10 -5 -4 -5 12 0 17 2 24 5 18 2 -7 2 -21 0 -30z
m-569 0 c-10 -2 -26 -2 -35 0 -10 3 -2 5 17 5 19 0 27 -2 18 -5z m229 -52 c0
-11 -5 -17 -11 -14 -5 4 -7 -3 -4 -15 4 -14 -3 -35 -17 -56 -13 -19 -22 -36
-21 -38 2 -2 -9 -16 -25 -31 -25 -25 -28 -26 -43 -12 -9 9 -13 22 -9 28 3 7 2
9 -2 4 -11 -9 -14 -48 -4 -42 4 3 10 -2 13 -11 4 -12 2 -15 -9 -10 -13 4 -14
2 -5 -14 17 -31 6 -37 -50 -30 -49 6 -53 5 -73 -22 -16 -21 -27 -28 -43 -24
-13 4 -31 -2 -47 -14 -30 -24 -57 -26 -57 -5 0 8 -9 15 -20 15 -13 0 -20 7
-20 20 0 12 -7 20 -17 20 -10 0 -25 5 -33 11 -12 8 -9 9 10 4 l25 -6 -25 15
c-14 9 -19 15 -11 16 11 0 11 3 1 16 -8 8 -22 20 -33 26 -17 9 -19 8 -13 -8 6
-15 5 -17 -5 -6 -10 9 -10 15 -2 23 17 17 49 1 67 -34 8 -18 16 -25 16 -16 0
26 -39 69 -64 69 -12 0 -28 -6 -35 -12 -11 -10 -13 -10 -7 0 4 6 3 12 -2 12
-17 0 -22 -13 -9 -29 11 -14 10 -14 -5 -2 -10 7 -15 18 -11 24 4 6 0 8 -9 4
-12 -4 -14 -1 -11 14 6 20 25 27 21 7 -3 -10 17 -13 51 -9 5 1 11 8 14 16 5
11 1 12 -19 4 -20 -7 -25 -6 -22 3 3 8 24 13 54 14 49 0 94 17 94 33 0 5 -8 7
-18 4 -18 -4 -50 22 -40 33 3 2 22 6 42 8 20 2 39 6 43 10 3 3 39 6 78 6 67 0
73 -2 83 -25 16 -34 16 -33 -15 -38 -16 -2 6 -3 47 -1 41 2 78 4 83 4 4 0 7 3
7 8 0 4 -21 5 -47 3 -36 -2 -50 1 -60 15 -7 10 -13 21 -13 25 0 12 82 -2 115
-19 17 -9 32 -16 35 -17 3 0 10 -4 16 -8 7 -4 15 0 18 9 4 10 2 13 -7 8 -6 -4
-3 2 8 13 11 12 25 20 30 19 6 0 9 5 8 12 -2 6 1 12 6 12 6 0 9 -9 8 -19z
m1013 -125 c-18 -129 -24 -136 -56 -74 -15 28 -14 35 13 118 27 85 28 87 41
63 11 -21 12 -41 2 -107z m-1100 114 c0 -5 -4 -10 -9 -10 -6 0 -13 5 -16 10
-3 6 1 10 9 10 9 0 16 -4 16 -10z m714 0 c2 -3 7 -17 11 -33 6 -22 4 -27 -11
-28 -40 -1 20 -18 68 -18 34 -1 46 -5 44 -16 -4 -25 -36 -53 -56 -48 -12 3
-22 -1 -26 -11 -3 -9 -10 -13 -16 -10 -16 10 -142 11 -165 1 -16 -7 -26 -5
-44 11 -20 19 -24 20 -50 7 -15 -8 -30 -24 -34 -35 -3 -11 -11 -20 -16 -20 -5
0 -10 -12 -10 -27 -1 -20 -3 -22 -6 -9 -9 33 -43 -32 -43 -81 0 -28 -4 -43
-13 -43 -23 0 -17 44 18 116 23 47 32 78 28 94 -5 17 -3 21 7 15 10 -6 11 -1
6 21 -4 19 -3 24 3 15 7 -11 13 -7 25 18 9 17 14 35 11 40 -8 14 41 41 75 41
35 0 38 -12 11 -39 -19 -19 -19 -20 0 -18 10 1 19 7 19 15 0 7 5 23 11 34 10
18 18 20 79 16 38 -2 71 -6 74 -8z m119 -30 c4 0 7 -4 7 -10 0 -5 -22 -10 -49
-10 -35 0 -51 4 -55 16 -12 30 -6 33 42 19 26 -8 50 -15 55 -15z m-1243 0 c0
-5 -10 -10 -22 -9 -22 0 -22 1 -3 9 11 5 21 9 23 9 1 1 2 -3 2 -9z m567 -18
c1 -12 -2 -22 -8 -22 -5 0 -7 -4 -4 -10 3 -5 2 -10 -4 -10 -6 0 -14 -12 -17
-27 -7 -31 -32 -63 -47 -63 -6 0 -2 9 8 20 21 24 27 47 15 55 -5 3 -7 -3 -5
-14 4 -23 -28 -56 -47 -46 -7 4 -3 -2 10 -12 l23 -19 -43 -40 c-24 -22 -52
-46 -63 -54 -25 -18 -29 -38 -14 -56 9 -11 8 -14 -3 -14 -10 0 -14 12 -14 39
0 22 5 37 11 35 9 -3 75 50 75 61 0 2 -12 0 -26 -5 -30 -12 -40 -13 -31 -3 4
3 1 13 -6 21 -10 13 -8 14 14 9 18 -5 31 -2 39 8 8 9 8 15 2 15 -6 0 -12 -6
-15 -12 -2 -7 -7 -11 -10 -8 -3 3 12 22 34 41 22 20 38 30 35 22 -3 -8 -1 -11
4 -8 6 3 10 13 10 22 0 8 15 34 33 56 17 23 26 37 18 33 -10 -6 -12 -5 -7 3
11 18 29 8 33 -17z m260 -4 c-3 -8 -6 -5 -6 6 -1 11 2 17 5 13 3 -3 4 -12 1
-19z m557 -45 c-4 -16 -3 -24 3 -20 6 4 15 -5 22 -19 10 -23 8 -31 -16 -63
-15 -20 -27 -40 -25 -44 1 -4 -9 0 -22 8 -23 15 -25 15 -40 -7 -9 -12 -16 -17
-16 -11 0 13 39 53 51 53 4 0 11 -5 14 -10 8 -12 25 -4 25 12 0 6 -3 8 -6 5
-4 -3 -15 -2 -26 4 -15 8 -24 6 -41 -8 -11 -10 -17 -13 -14 -6 4 6 3 13 -1 15
-5 1 2 14 15 28 21 22 23 22 18 5 -6 -19 -6 -19 8 -2 9 11 13 25 11 32 -3 7
-1 16 5 20 7 4 8 0 4 -11 -4 -12 -3 -15 6 -10 7 5 11 17 8 27 -3 12 -1 17 6
12 7 -4 8 0 4 11 -4 10 -3 15 3 11 6 -3 7 -18 4 -32z m-1571 -109 c23 -27 33
-42 23 -34 -18 14 -19 14 -9 -5 6 -11 9 -31 8 -44 -1 -14 6 -61 16 -105 10
-45 19 -97 19 -116 0 -28 3 -32 11 -20 8 11 9 8 4 -13 -5 -27 24 -195 46 -262
6 -16 12 -41 13 -55 6 -50 19 -105 27 -116 5 -6 7 -19 3 -28 -3 -9 1 -27 10
-41 9 -14 12 -26 6 -30 -10 -6 -20 8 -69 95 -17 30 -34 54 -38 52 -4 -2 -9 2
-12 9 -2 7 1 9 8 5 15 -10 14 13 -4 64 -8 23 -24 86 -35 139 -104 510 -120
607 -104 633 6 9 13 -3 21 -33 8 -27 32 -68 56 -95z m39 122 c7 4 8 2 4 -5 -9
-13 -26 -5 -25 12 0 9 2 8 6 -1 2 -6 10 -9 15 -6z m48 4 c0 -5 -8 -10 -17 -10
-15 0 -16 2 -3 10 19 12 20 12 20 0z m880 -44 c0 -8 -4 -17 -9 -20 -5 -3 -7
-15 -4 -26 3 -11 -2 -31 -11 -45 -9 -13 -16 -28 -16 -32 0 -4 5 -1 10 7 8 12
10 11 10 -6 0 -32 -12 -37 -28 -12 -10 18 -12 19 -7 3 4 -11 9 -29 12 -40 4
-20 4 -20 -11 -1 -14 17 -16 18 -16 3 0 -9 -3 -17 -7 -17 -5 0 -21 -11 -37
-25 -31 -27 -49 -22 -61 16 -5 15 -16 19 -57 19 -41 0 -49 3 -44 16 3 8 2 12
-4 9 -6 -3 -10 -1 -10 5 0 6 -4 9 -10 5 -5 -3 -7 -12 -4 -19 3 -7 -2 -16 -10
-19 -20 -8 -20 3 0 31 9 13 22 21 30 18 8 -3 14 -1 14 4 0 13 41 60 52 60 10
0 -11 -42 -26 -52 -8 -5 -8 -8 0 -8 6 0 22 18 37 40 14 22 22 40 16 40 -5 0
-9 -6 -10 -12 0 -10 -2 -10 -6 -1 -2 7 4 24 15 38 20 25 21 25 27 6 3 -11 1
-31 -6 -43 -11 -20 -10 -21 3 -11 13 11 15 8 16 -21 1 -18 4 -49 7 -67 4 -25
3 -30 -5 -19 -5 8 -10 26 -11 40 l-2 25 -4 -24 c-4 -19 -7 -21 -14 -10 -7 11
-9 11 -9 -3 0 -10 5 -18 10 -18 6 0 10 -7 10 -15 0 -8 4 -15 9 -15 5 0 11 -7
13 -16 4 -20 80 54 84 82 5 36 36 114 46 114 6 0 8 7 4 15 -3 8 -1 15 4 15 6
0 10 -6 10 -14z m936 -78 c17 -57 28 -198 14 -198 -4 0 -5 -26 -3 -58 4 -45 1
-61 -11 -71 -9 -8 -16 -10 -17 -5 0 9 -7 47 -11 61 -1 4 5 20 12 36 11 23 10
38 -9 109 -14 52 -18 85 -12 91 6 6 12 -4 17 -29 9 -55 26 -80 18 -29 -8 55
-24 95 -38 95 -26 0 -126 -235 -111 -260 11 -18 14 -51 4 -45 -5 4 -9 -1 -9
-9 0 -9 6 -16 13 -17 9 0 9 -2 -1 -6 -6 -2 -10 -9 -7 -13 3 -5 1 -11 -4 -15
-6 -3 -8 3 -6 15 2 11 0 20 -5 20 -11 0 -21 -30 -13 -42 3 -7 1 -8 -5 -4 -10
6 -68 -99 -64 -116 1 -5 -3 -8 -10 -8 -6 0 -9 -3 -5 -6 3 -3 -3 -16 -15 -28
-28 -30 -40 -64 -29 -85 11 -21 3 -37 -22 -42 -19 -4 -37 -34 -77 -126 -21
-47 -25 -51 -36 -35 -11 14 -10 19 4 30 15 11 15 14 2 22 -8 5 -10 10 -5 10
12 0 44 164 51 260 2 36 11 110 20 164 8 54 17 133 19 175 4 55 12 89 31 128
l27 53 33 -38 c25 -29 31 -43 27 -67 -7 -43 -42 -216 -63 -310 -10 -44 -17
-81 -16 -83 2 -1 20 37 41 85 21 48 61 140 90 203 29 63 56 134 60 157 8 48
42 83 81 83 19 0 26 -9 40 -52z m-526 22 c0 -5 -2 -10 -4 -10 -3 0 -8 5 -11
10 -3 6 -1 10 4 10 6 0 11 -4 11 -10z m-1295 -29 c-3 -2 -12 2 -22 10 -15 12
-16 12 -10 -5 6 -16 5 -17 -8 -6 -12 10 -13 15 -4 21 12 7 52 -11 44 -20z m15
-21 c8 -5 11 -10 5 -10 -5 0 -17 5 -25 10 -8 5 -10 10 -5 10 6 0 17 -5 25 -10z
m1271 -17 c-8 -15 -10 -15 -11 -2 0 17 10 32 18 25 2 -3 -1 -13 -7 -23z m39
18 c0 -6 -4 -13 -10 -16 -5 -3 -10 1 -10 9 0 9 5 16 10 16 6 0 10 -4 10 -9z
m-1226 -14 c14 -8 23 -16 20 -19 -5 -6 -64 20 -64 28 0 8 18 4 44 -9z m1256 5
c0 -5 -7 -17 -15 -28 -14 -18 -14 -17 -4 9 12 27 19 34 19 19z m10 -29 c-11
-17 -11 -17 -6 0 3 10 6 24 7 30 0 9 2 9 5 0 3 -7 0 -20 -6 -30z m-1642 15 c9
-12 54 -114 132 -303 33 -82 45 -141 30 -150 -6 -4 -10 -3 -9 2 4 15 -13 43
-22 37 -5 -3 -9 1 -9 9 0 8 -7 20 -15 27 -11 9 -15 32 -15 79 0 74 -20 127
-71 190 -40 51 -57 57 -85 30 -23 -21 -61 -115 -51 -125 3 -3 13 17 22 45 12
39 21 51 36 51 23 0 21 -13 -12 -86 -15 -34 -16 -48 -8 -79 8 -27 8 -45 0 -62
-11 -23 -41 -32 -41 -12 0 5 4 8 8 5 5 -3 9 1 9 9 0 8 -5 11 -10 8 -6 -4 -8 0
-4 10 3 9 0 22 -7 29 -13 13 -16 21 -16 39 0 5 -5 7 -11 3 -7 -4 -9 0 -6 12 3
11 11 44 18 74 15 67 57 141 90 157 30 16 34 16 47 1z m1742 -14 c0 -3 -4 -3
-9 1 -5 3 -17 -5 -25 -17 -9 -12 -16 -17 -16 -11 0 7 5 15 11 18 6 4 8 13 5
21 -4 12 -2 12 14 4 11 -6 20 -13 20 -16z m311 -83 c19 -58 20 -72 9 -86 -7
-8 -15 -13 -18 -10 -3 3 -18 -6 -33 -21 -19 -19 -29 -22 -34 -13 -5 7 -4 10 2
6 6 -4 20 5 33 18 13 13 28 22 34 19 6 -3 2 1 -8 10 -10 8 -22 13 -27 11 -12
-8 -17 19 -7 39 8 15 12 16 20 5 6 -10 7 -6 3 11 -4 14 -11 29 -15 33 -9 10
-1 47 11 47 4 0 18 -31 30 -69z m-1254 28 c-15 -9 -16 -13 -5 -27 12 -15 11
-16 -5 -3 -13 10 -15 17 -6 27 6 8 17 14 23 14 6 0 3 -5 -7 -11z m303 -8 c0
-12 -20 -25 -27 -18 -7 7 6 27 18 27 5 0 9 -4 9 -9z m-126 -34 c-8 -5 -25 -6
-37 -4 -18 4 -18 4 6 6 18 1 27 6 27 19 0 14 2 15 10 2 6 -10 5 -17 -6 -23z
m-944 -39 c0 -5 -5 -6 -10 -3 -6 4 -18 4 -27 1 -12 -5 -13 -9 -4 -20 9 -11 9
-16 0 -22 -8 -4 -9 -3 -5 4 4 7 3 12 -3 12 -13 0 -24 -76 -17 -115 l5 -30 -19
24 c-28 33 -25 78 11 139 29 52 31 53 50 36 10 -9 19 -21 19 -26z m1053 35
c-7 -2 -19 -2 -25 0 -7 3 -2 5 12 5 14 0 19 -2 13 -5z m627 -27 c0 -3 -4 -8
-10 -11 -5 -3 -10 -1 -10 4 0 6 5 11 10 11 6 0 10 -2 10 -4z m-740 -36 c0 -5
-5 -10 -11 -10 -5 0 -7 5 -4 10 3 6 8 10 11 10 2 0 4 -4 4 -10z m-60 -9 c0 -6
-4 -12 -8 -15 -5 -3 -9 1 -9 9 0 8 4 15 9 15 4 0 8 -4 8 -9z m162 2 c-17 -3
-22 -9 -17 -21 5 -13 3 -14 -6 -5 -16 16 -3 33 24 32 21 -2 21 -2 -1 -6z m-42
-7 c0 -3 -4 -8 -10 -11 -5 -3 -10 -1 -10 4 0 6 5 11 10 11 6 0 10 -2 10 -4z
m677 -43 c-3 -10 -5 -4 -5 12 0 17 2 24 5 18 2 -7 2 -21 0 -30z m-610 13 c-3
-8 -1 -17 6 -19 7 -2 -4 -4 -23 -4 -19 0 -44 -3 -55 -7 -18 -7 -18 -6 -2 4 9
6 27 13 40 16 12 2 23 8 25 14 2 5 6 10 9 10 3 0 3 -6 0 -14z m-67 -6 c-8 -5
-22 -9 -30 -9 -10 0 -8 3 5 9 27 12 43 12 25 0z m-80 -10 c8 6 20 10 25 10 6
0 3 -5 -5 -10 -12 -8 -12 -10 5 -10 17 -1 17 -2 -4 -11 -16 -6 -28 -6 -35 1
-12 12 -29 14 -22 2 3 -5 -1 -9 -8 -9 -11 0 -12 4 -3 18 7 11 15 15 22 9 6 -5
17 -5 25 0z m-940 -55 c8 -11 10 -17 6 -13 -5 4 -15 3 -23 -3 -9 -9 -13 -8
-13 0 0 6 5 11 11 11 5 0 7 5 4 10 -4 6 -10 8 -14 6 -4 -3 -8 4 -8 15 -2 21 7
15 37 -26z m27 10 c0 -8 -4 -12 -9 -9 -5 3 -6 10 -3 15 9 13 12 11 12 -6z
m290 -7 c-3 -8 -6 -5 -6 6 -1 11 2 17 5 13 3 -3 4 -12 1 -19z m1681 10 c-2 -7
3 -12 10 -10 17 3 15 -27 -3 -34 -12 -5 -13 -10 -4 -20 7 -9 8 -14 1 -14 -15
0 -24 32 -11 40 8 6 8 9 -2 12 -7 2 -10 11 -6 21 7 20 18 23 15 5z m-1701 -30
c-3 -8 -6 -5 -6 6 -1 11 2 17 5 13 3 -3 4 -12 1 -19z m1793 2 c-6 -11 -13 -20
-16 -20 -2 0 0 9 6 20 6 11 13 20 16 20 2 0 0 -9 -6 -20z m-2232 -26 c0 -17
-3 -22 -8 -13 -5 6 -6 18 -3 26 8 19 11 16 11 -13z m157 7 c-9 -8 -36 -10 -30
-2 2 4 11 8 20 8 8 0 13 -3 10 -6z m36 -29 c-6 -2 -11 -8 -11 -13 0 -6 5 -7
12 -3 7 5 8 3 3 -6 -6 -10 -11 -10 -20 3 -7 9 -16 13 -20 9 -5 -4 -5 -1 -1 6
4 7 12 9 18 6 8 -5 9 -1 4 11 -6 16 -4 16 10 4 10 -8 12 -15 5 -17z m-203 -27
c-3 -3 -9 2 -12 12 -6 14 -5 15 5 6 7 -7 10 -15 7 -18z m2215 -21 c-4 -10 -10
-11 -24 -3 -26 13 -24 18 4 11 21 -5 21 -5 5 12 -24 24 -23 33 1 12 11 -10 17
-24 14 -32z m-2184 -17 c1 -5 -3 -5 -9 -2 -5 3 -10 16 -9 28 0 21 1 21 9 2 5
-11 9 -24 9 -28z m418 21 c-3 -8 -6 -5 -6 6 -1 11 2 17 5 13 3 -3 4 -12 1 -19z
m-333 3 c4 -5 -4 -7 -16 -5 -13 2 -17 2 -10 -2 6 -3 12 -12 12 -21 0 -12 -2
-12 -16 1 -8 9 -12 20 -9 26 8 12 32 13 39 1z m50 -17 c5 -14 4 -15 -9 -4 -17
14 -19 20 -6 20 5 0 12 -7 15 -16z m91 -14 c3 -6 -1 -7 -9 -4 -18 7 -21 14 -7
14 6 0 13 -4 16 -10z m-211 -15 c-4 -8 -11 -12 -16 -9 -6 4 -5 10 3 15 19 12
19 11 13 -6z m84 -20 c-3 -3 -9 2 -12 12 -6 14 -5 15 5 6 7 -7 10 -15 7 -18z
m-43 -45 c2 -12 3 -21 1 -19 -3 2 -5 9 -6 14 -1 6 -7 19 -12 30 -8 15 -8 17 1
9 6 -6 13 -21 16 -34z m85 -1 c0 -6 -7 -3 -16 6 -14 13 -19 14 -25 3 -5 -7 -9
-8 -9 -2 0 6 3 14 6 17 9 8 44 -11 44 -24z m1916 -16 c-2 -9 -11 -17 -20 -19
-17 -2 -17 -2 0 17 21 23 23 23 20 2z m-1901 -3 c-3 -5 2 -10 12 -11 11 0 13
-3 5 -6 -7 -3 -20 -2 -30 2 -14 5 -14 7 -2 15 19 12 23 12 15 0z m1841 -2 c5
-8 2 -9 -9 -5 -10 3 -17 2 -17 -2 0 -5 6 -11 13 -14 6 -3 2 -4 -10 -4 -17 1
-20 4 -12 19 11 21 25 23 35 6z m-736 -12 c0 -2 -7 -7 -16 -10 -8 -3 -12 -2
-9 4 6 10 25 14 25 6z m-1020 -10 c0 -7 -40 -14 -44 -7 -3 4 6 8 20 9 13 1 24
0 24 -2z m1774 -12 c3 -8 2 -12 -4 -9 -6 3 -10 10 -10 16 0 14 7 11 14 -7z
m-1874 -10 c0 -8 -19 -13 -24 -6 -3 5 1 9 9 9 8 0 15 -2 15 -3z m53 -49 c4 0
7 -4 8 -8 2 -18 -9 -16 -27 5 -11 13 -13 18 -4 12 8 -5 18 -9 23 -9z m1157 -9
c-4 -4 -16 -4 -26 2 -16 9 -14 10 8 9 15 -1 23 -6 18 -11z m-90 -20 c0 -2 -7
-7 -16 -10 -8 -3 -12 -2 -9 4 6 10 25 14 25 6z m-753 -53 c-3 -10 -5 -4 -5 12
0 17 2 24 5 18 2 -7 2 -21 0 -30z m-194 16 c7 0 1 -5 -12 -10 -13 -5 -26 -7
-29 -4 -3 3 1 5 9 5 12 0 11 2 -1 11 -12 9 -12 10 3 5 10 -3 24 -6 30 -7z
m1424 -61 c-3 -8 -6 -5 -6 6 -1 11 2 17 5 13 3 -3 4 -12 1 -19z m-1245 -15
c-6 -2 -9 -10 -6 -15 4 -7 2 -8 -5 -4 -13 9 -5 26 12 25 9 0 8 -2 -1 -6z m24
-33 c0 -12 -4 -16 -9 -11 -5 5 -6 14 -3 20 10 15 12 14 12 -9z m1244 5 c0 -1
-10 -10 -22 -21 -14 -12 -18 -13 -10 -3 6 9 10 18 7 21 -3 2 2 5 10 5 8 0 15
-1 15 -2z m-105 -73 c-17 -15 -18 -15 -6 0 7 9 9 23 5 30 -6 10 -4 11 7 0 11
-10 10 -15 -6 -30z m-1140 8 c10 -11 16 -20 13 -20 -3 0 -13 9 -23 20 -10 11
-16 20 -13 20 3 0 13 -9 23 -20z m1215 16 c0 -2 -8 -10 -17 -17 -16 -13 -17
-12 -4 4 13 16 21 21 21 13z m-1180 -16 c0 -5 -2 -10 -4 -10 -3 0 -8 5 -11 10
-3 6 -1 10 4 10 6 0 11 -4 11 -10z m1136 -22 c4 -7 3 -10 -1 -5 -5 4 -20 -3
-34 -15 l-26 -23 24 28 c28 31 28 31 37 15z m-1086 -28 c6 -11 8 -20 6 -20 -3
0 -10 9 -16 20 -6 11 -8 20 -6 20 3 0 10 -9 16 -20z m73 -63 c3 -7 -3 -13 -13
-13 -10 0 -16 6 -13 13 3 7 9 13 13 13 4 0 10 -6 13 -13z m847 -37 c0 -5 -10
-15 -22 -21 -23 -12 -23 -12 -4 10 21 23 26 26 26 11z m-800 -4 c0 -3 -4 -8
-10 -11 -5 -3 -10 -1 -10 4 0 6 5 11 10 11 6 0 10 -2 10 -4z m34 -12 c3 -8 2
-12 -4 -9 -6 3 -10 10 -10 16 0 14 7 11 14 -7z m781 -14 c-3 -5 -12 -10 -18
-10 -7 0 -6 4 3 10 19 12 23 12 15 0z m-41 -29 c3 -5 -1 -14 -8 -20 -10 -9
-16 -9 -21 -1 -4 6 -1 9 7 8 7 -2 12 3 11 10 -3 14 3 16 11 3z m-49 -10 c-3
-5 -1 -12 5 -16 5 -3 10 -11 10 -18 0 -6 -6 -2 -14 8 -13 18 -13 35 0 35 3 0
3 -4 -1 -9z m-669 -13 c3 -4 -1 -5 -10 -4 -8 1 -18 5 -22 8 -3 4 1 5 10 4 8
-1 18 -5 22 -8z m639 -47 c3 -5 2 -12 -3 -15 -5 -3 -9 1 -9 9 0 17 3 19 12 6z
m-531 -20 c3 -5 -2 -15 -12 -22 -15 -12 -16 -12 -5 2 7 9 10 19 6 22 -3 4 -4
7 0 7 3 0 8 -4 11 -9z m-24 -7 c0 -8 -19 -13 -24 -6 -3 5 1 9 9 9 8 0 15 -2
15 -3z m500 -29 c0 -1 -10 -10 -22 -21 -17 -14 -20 -15 -9 -2 7 9 10 22 6 27
-3 7 0 8 9 5 9 -3 16 -7 16 -9z m-445 -14 c3 -5 2 -12 -3 -15 -5 -3 -9 1 -9 9
0 17 3 19 12 6z m29 -29 c3 -5 -1 -9 -9 -9 -8 0 -12 4 -9 9 3 4 7 8 9 8 2 0 6
-4 9 -8z m48 -27 c2 3 5 -2 5 -10 0 -11 -4 -12 -14 -4 -7 6 -13 8 -13 5 0 -4
-5 -4 -10 -1 -6 4 -8 11 -4 16 4 6 10 6 18 0 7 -6 15 -9 18 -6z m759 -18 c-10
-9 -11 -8 -5 6 3 10 9 15 12 12 3 -3 0 -11 -7 -18z m-1191 -22 c0 -8 -2 -15
-4 -15 -2 0 -6 7 -10 15 -3 8 -1 15 4 15 6 0 10 -7 10 -15z m1160 -24 c0 -4
-6 -15 -13 -25 -12 -16 -13 -16 -13 3 0 11 5 17 10 14 5 -4 7 1 3 11 -4 10 -3
15 3 11 6 -3 10 -10 10 -14z m-573 -7 c-3 -3 -12 -4 -19 -1 -8 3 -5 6 6 6 11
1 17 -2 13 -5z m-514 -70 c-3 -8 -7 -14 -10 -14 -3 0 -3 6 0 14 3 7 0 20 -6
27 -10 11 -9 11 5 0 9 -7 14 -19 11 -27z m1075 1 c-3 -3 -9 2 -12 12 -6 14 -5
15 5 6 7 -7 10 -15 7 -18z m-21 -37 c-3 -7 -5 -2 -5 12 0 14 2 19 5 13 2 -7 2
-19 0 -25z m-1047 -13 c14 -19 14 -19 -2 -6 -10 7 -18 18 -18 24 0 6 1 8 3 6
1 -2 9 -13 17 -24z m55 -4 c3 -5 2 -12 -3 -15 -5 -3 -9 1 -9 9 0 17 3 19 12 6z
m-2 -46 c-3 -9 -8 -14 -10 -11 -3 3 -2 9 2 15 9 16 15 13 8 -4z m41 -1 c3 -8
2 -12 -4 -9 -6 3 -10 10 -10 16 0 14 7 11 14 -7z m1003 -66 c-3 -7 -5 -2 -5
12 0 14 2 19 5 13 2 -7 2 -19 0 -25z m31 1 c-3 -8 -7 -3 -11 10 -4 17 -3 21 5
13 5 -5 8 -16 6 -23z m-141 -26 c-3 -10 -5 -4 -5 12 0 17 2 24 5 18 2 -7 2
-21 0 -30z m-852 7 c-3 -5 -3 -15 1 -22 5 -8 10 -6 14 7 6 18 7 18 12 -2 6
-23 -13 -26 -33 -6 -10 10 -5 33 7 33 3 0 2 -4 -1 -10z m100 -130 c3 -5 1 -10
-4 -10 -6 0 -11 5 -11 10 0 6 2 10 4 10 3 0 8 -4 11 -10z m550 -89 c-3 -6 -11
-11 -16 -11 -5 0 -4 6 3 14 14 16 24 13 13 -3z m-45 -81 c0 -5 -4 -10 -10 -10
-5 0 -10 5 -10 10 0 6 5 10 10 10 6 0 10 -4 10 -10z m230 -56 c0 -8 -19 -13
-24 -6 -3 5 1 9 9 9 8 0 15 -2 15 -3z m-373 -29 c0 -17 -13 -20 -21 -6 -4 5 0
12 6 14 7 3 13 6 14 6 0 1 1 -6 1 -14z m580 -87 c-3 -8 -6 -5 -6 6 -1 11 2 17
5 13 3 -3 4 -12 1 -19z m33 -43 c0 -5 -5 -3 -10 5 -5 8 -10 20 -10 25 0 6 5 3
10 -5 5 -8 10 -19 10 -25z m-273 -17 c-3 -7 -5 -2 -5 12 0 14 2 19 5 13 2 -7
2 -19 0 -25z m230 -4 c-3 -3 -12 -4 -19 -1 -8 3 -5 6 6 6 11 1 17 -2 13 -5z
m41 -8 c-7 -8 -15 -12 -17 -11 -5 6 10 25 20 25 5 0 4 -6 -3 -14z m-1334 -22
c3 -8 2 -12 -4 -9 -6 3 -10 10 -10 16 0 14 7 11 14 -7z m1293 0 c-3 -3 -12 -4
-19 -1 -8 3 -5 6 6 6 11 1 17 -2 13 -5z m-953 -20 c3 -8 2 -12 -4 -9 -6 3 -10
10 -10 16 0 14 7 11 14 -7z m1060 -80 c3 -8 2 -12 -4 -9 -6 3 -10 10 -10 16 0
14 7 11 14 -7z m-417 -16 c-3 -8 -6 -5 -6 6 -1 11 2 17 5 13 3 -3 4 -12 1 -19z
m712 -44 c18 -37 28 -71 24 -75 -4 -4 -28 -11 -51 -15 l-44 -7 27 53 c30 60
26 80 -6 26 -22 -38 -33 -47 -22 -19 4 10 2 14 -5 9 -6 -3 -1 16 11 43 12 28
25 51 28 51 4 0 21 -30 38 -66z m-582 -26 c-3 -8 -6 -5 -6 6 -1 11 2 17 5 13
3 -3 4 -12 1 -19z m-160 -50 c-3 -8 -6 -5 -6 6 -1 11 2 17 5 13 3 -3 4 -12 1
-19z m-520 -20 c-3 -8 -6 -5 -6 6 -1 11 2 17 5 13 3 -3 4 -12 1 -19z"/>
<path d="M1172 2800 c0 -14 2 -19 5 -12 2 6 2 18 0 25 -3 6 -5 1 -5 -13z"/>
<path d="M1200 2675 c0 -8 2 -15 4 -15 2 0 6 7 10 15 3 8 1 15 -4 15 -6 0 -10
-7 -10 -15z"/>
<path d="M1748 2773 c12 -2 22 -9 22 -14 0 -5 8 -9 18 -9 15 1 15 2 -2 15 -11
8 -29 14 -40 14 -19 -2 -19 -2 2 -6z"/>
<path d="M1783 2633 c-7 -15 -11 -28 -9 -31 6 -6 28 38 24 48 -2 5 -9 -3 -15
-17z"/>
<path d="M1740 2610 c-13 -8 -12 -10 3 -10 9 0 17 5 17 10 0 12 -1 12 -20 0z"/>
<path d="M1715 2550 c-3 -5 -1 -10 4 -10 6 0 11 5 11 10 0 6 -2 10 -4 10 -3 0
-8 -4 -11 -10z"/>
<path d="M1590 2520 c20 -13 43 -13 35 0 -3 6 -16 10 -28 10 -18 0 -19 -2 -7
-10z"/>
<path d="M1521 2458 c1 -30 2 -31 8 -8 5 19 16 27 41 31 35 6 35 6 -7 8 -42 1
-43 0 -42 -31z"/>
<path d="M2166 2560 c-20 -51 -20 -55 2 -33 15 15 30 73 18 73 -2 0 -11 -18
-20 -40z"/>
<path d="M2201 2574 c0 -11 3 -14 6 -6 3 7 2 16 -1 19 -3 4 -6 -2 -5 -13z"/>
<path d="M2530 2570 c0 -5 -8 -10 -17 -11 -11 0 -13 -3 -6 -6 7 -2 23 3 35 11
18 13 19 16 5 16 -9 0 -17 -4 -17 -10z"/>
<path d="M1781 2474 c0 -11 3 -14 6 -6 3 7 2 16 -1 19 -3 4 -6 -2 -5 -13z"/>
<path d="M2687 2532 c-18 -20 -23 -37 -8 -28 5 4 12 0 15 -6 4 -9 5 -8 5 2 -2
33 3 44 11 20 l8 -25 1 28 c1 31 -9 34 -32 9z"/>
<path d="M2660 2466 c0 -2 7 -7 16 -10 8 -3 12 -2 9 4 -6 10 -25 14 -25 6z"/>
<path d="M1920 2454 c0 -8 5 -12 10 -9 6 4 8 11 5 16 -9 14 -15 11 -15 -7z"/>
<path d="M1888 2403 c7 -3 16 -2 19 1 4 3 -2 6 -13 5 -11 0 -14 -3 -6 -6z"/>
<path d="M3034 2184 c0 -13 4 -24 8 -24 4 0 8 9 8 19 0 11 -4 22 -8 25 -4 2
-8 -6 -8 -20z"/>
<path d="M2950 2286 c0 -2 7 -6 15 -10 8 -3 15 -1 15 4 0 6 -7 10 -15 10 -8 0
-15 -2 -15 -4z"/>
<path d="M1270 319 c0 -5 5 -7 10 -4 6 3 10 8 10 11 0 2 -4 4 -10 4 -5 0 -10
-5 -10 -11z"/>
<path d="M1215 310 c-3 -5 -1 -10 4 -10 6 0 11 5 11 10 0 6 -2 10 -4 10 -3 0
-8 -4 -11 -10z"/>
</g>
</svg>
